# xmcd
#
# Track frame offsets:
#	150
#	6620
#	16043
#	30136
#	43057
#	55962
#	71545
#	90612
#	102028
#	113348
#	139448
#	150367
#	163960
#
# Disc length: 2407 seconds
#
# Revision: 0
# Processed by: cddbd v1.5.1PL0 Copyright (c) Steve Scherf et al.
# Submitted via: dBpowerAMP V4.0
#
DISCID=9a09650d
DTITLE=Merle Haggard - The Fightin' Side Of Me (Live)
DYEAR=1900
DGENRE=Country
TTITLE0=Theme - Hammin' It Up
TTITLE1=I Take Alot Of Pride In What I Am
TTITLE2=Corrine Corrina
TTITLE3=Every Fool Has A Rainbow
TTITLE4=T. B. Blues
TTITLE5=When Did Right Become Wrong
TTITLE6=Philadelphia Lawyer
TTITLE7=Stealin' Corn
TTITLE8=Harold's Super Service
TTITLE9=Medley - Impersonations
TTITLE10=Today I Started Loving You Again
TTITLE11=Okie From Muskogee
TTITLE12=The Fightin' Side Of Me
EXTD=+Sound Man+
EXTT0=
EXTT1=
EXTT2=
EXTT3=
EXTT4=
EXTT5=
EXTT6=
EXTT7=
EXTT8=
EXTT9=
EXTT10=
EXTT11=
EXTT12=
PLAYORDER=
